<svg xmlns="http://www.w3.org/2000/svg" xmlns:xlink="http://www.w3.org/1999/xlink" width="160" zoomAndPan="magnify" viewBox="0 0 120 119.999999" height="160" preserveAspectRatio="xMidYMid meet" version="1.0"><defs><g/><clipPath id="62d45d4e95"><path d="M 2 9 L 98 9 L 98 111 L 2 111 Z M 2 9 " clip-rule="nonzero"/></clipPath><clipPath id="ea4e4fc22b"><path d="M 27.4375 -5.84375 L 126.042969 30.238281 L 85.582031 140.816406 L -13.023438 104.738281 Z M 27.4375 -5.84375 " clip-rule="nonzero"/></clipPath><clipPath id="66ae5b6c6b"><path d="M 27.4375 -5.84375 L 126.042969 30.238281 L 85.582031 140.816406 L -13.023438 104.738281 Z M 27.4375 -5.84375 " clip-rule="nonzero"/></clipPath><clipPath id="da445a1aa1"><path d="M 24 23 L 112 23 L 112 115 L 24 115 Z M 24 23 " clip-rule="nonzero"/></clipPath><clipPath id="cd7e3a2050"><path d="M 27.4375 -5.84375 L 126.042969 30.238281 L 85.582031 140.816406 L -13.023438 104.738281 Z M 27.4375 -5.84375 " clip-rule="nonzero"/></clipPath><clipPath id="5988f3724b"><path d="M 27.4375 -5.84375 L 126.042969 30.238281 L 85.582031 140.816406 L -13.023438 104.738281 Z M 27.4375 -5.84375 " clip-rule="nonzero"/></clipPath><clipPath id="cbbe476ca4"><rect x="0" width="74" y="0" height="117"/></clipPath><clipPath id="c5bafa1772"><path d="M 42.933594 64.195312 L 43.273438 64.195312 L 43.273438 64.457031 L 42.933594 64.457031 Z M 42.933594 64.195312 " clip-rule="nonzero"/></clipPath><clipPath id="cad1f5755b"><path d="M 43.253906 64.351562 C 42.613281 64.636719 43.183594 64.210938 43.183594 64.210938 " clip-rule="nonzero"/></clipPath><clipPath id="e3e9bf2888"><path d="M 0.933594 0.195312 L 1.273438 0.195312 L 1.273438 0.457031 L 0.933594 0.457031 Z M 0.933594 0.195312 " clip-rule="nonzero"/></clipPath><clipPath id="eaf1f30639"><path d="M 1.253906 0.351562 C 0.613281 0.636719 1.183594 0.210938 1.183594 0.210938 " clip-rule="nonzero"/></clipPath><clipPath id="27c5216bbd"><rect x="0" width="2" y="0" height="1"/></clipPath></defs><g clip-path="url(#62d45d4e95)"><g clip-path="url(#ea4e4fc22b)"><g clip-path="url(#66ae5b6c6b)"><path fill="#a34bff" d="M 19.535156 45.558594 C 28.078125 22.214844 53.925781 10.214844 77.273438 18.753906 C 82.53125 20.679688 87.210938 23.480469 91.210938 26.933594 L 97.09375 25.953125 C 91.640625 20.121094 84.773438 15.445312 76.761719 12.515625 C 49.464844 2.527344 19.238281 16.558594 9.25 43.855469 C 2.824219 61.417969 6.34375 80.1875 16.933594 94.003906 L 2.777344 110.507812 C 5.339844 108.207031 17.035156 98.855469 27.6875 90.394531 C 17.410156 78.433594 13.730469 61.417969 19.535156 45.558594 " fill-opacity="1" fill-rule="nonzero"/></g></g></g><g clip-path="url(#da445a1aa1)"><g clip-path="url(#cd7e3a2050)"><g clip-path="url(#5988f3724b)"><path fill="#00ffff" d="M 102.019531 32.078125 L 108.859375 23.984375 L 96.253906 32.042969 C 106.28125 43.980469 109.816406 60.800781 104.074219 76.492188 C 95.535156 99.835938 69.683594 111.839844 46.339844 103.296875 C 42.136719 101.757812 38.300781 99.65625 34.886719 97.113281 C 31.234375 98.667969 27.601562 100.214844 24.15625 101.683594 C 28.863281 105.773438 34.382812 109.097656 40.59375 111.367188 C 67.890625 121.355469 98.113281 107.324219 108.101562 80.027344 C 114.195312 63.382812 111.351562 45.648438 102.019531 32.078125 " fill-opacity="1" fill-rule="nonzero"/></g></g></g><g transform="matrix(1, 0, 0, 1, 24, 2)"><g clip-path="url(#cbbe476ca4)"><g fill="#a34bff" fill-opacity="1"><g transform="translate(0.569893, 90.292524)"><g><path d="M 55.40625 -0.136719 L 53.871094 -1.464844 L 51.289062 -4.347656 L 52.765625 -5.671875 L 51.367188 -4.265625 L 36.46875 -19.066406 L 37.867188 -20.472656 L 36.789062 -18.808594 L 34.917969 -20.015625 L 33.484375 -21.671875 L 34.984375 -22.96875 L 33.613281 -21.539062 L 26.679688 -28.179688 L 25.335938 -29.933594 L 26.910156 -31.140625 L 26.199219 -29.289062 L 24.949219 -29.769531 L 25.660156 -31.621094 L 27.496094 -30.863281 L 26.820312 -29.230469 L 24.988281 -29.984375 L 26.960938 -29.789062 L 26.769531 -27.867188 L 24.796875 -28.0625 L 26.777344 -28.054688 L 26.679688 -3.433594 L 25.371094 0.632812 L 22.328125 2.152344 L 19.769531 2.273438 L 15.898438 1.976562 L 16.050781 0 L 16.230469 1.972656 L 13.976562 2.179688 L 9.625 1.96875 L 6.546875 0.941406 L 5.140625 -2.03125 L 4.933594 -10.652344 L 5.140625 -12.605469 L 7.113281 -12.398438 L 5.128906 -12.375 L 4.933594 -28.320312 L 5.253906 -30.136719 L 7.207031 -29.792969 L 5.226562 -29.699219 L 5.03125 -33.746094 L 5.132812 -35.484375 L 7.113281 -35.367188 L 5.128906 -35.367188 L 5.128906 -64.933594 L 6.503906 -67.835938 L 10 -69.355469 L 13.765625 -68.476562 L 16.371094 -67.121094 L 18.050781 -65.773438 L 37.066406 -46.566406 L 35.65625 -45.171875 L 36.882812 -46.730469 L 39.664062 -44.542969 L 46.574219 -37.636719 L 45.171875 -36.234375 L 46.011719 -38.03125 L 47.453125 -37.355469 L 46.613281 -35.5625 L 44.742188 -36.21875 L 45.320312 -37.855469 L 47.191406 -37.195312 L 45.207031 -37.214844 L 45.398438 -54.421875 L 47.382812 -54.398438 L 45.40625 -54.21875 L 45.199219 -56.492188 L 45.5 -60.691406 L 47.476562 -60.550781 L 45.53125 -60.183594 L 45.199219 -61.949219 L 45.328125 -64.636719 L 46.851562 -67.550781 L 49.628906 -69.160156 L 62.589844 -69.261719 L 65.507812 -67.660156 L 66.941406 -64.785156 L 67.242188 -50.835938 L 66.9375 -48.386719 L 64.96875 -48.632812 L 66.953125 -48.632812 L 66.953125 -39.117188 L 64.96875 -39.117188 L 66.921875 -39.460938 L 67.242188 -37.652344 L 67.046875 -1.929688 L 65.503906 1.15625 L 62.195312 2.207031 L 58.660156 1.828125 L 55.539062 -0.0195312 Z M 58.003906 -3.132812 L 56.703125 -1.632812 L 57.714844 -3.339844 L 60.308594 -1.800781 L 59.300781 -0.0976562 L 59.511719 -2.066406 L 62.203125 -1.777344 L 61.992188 0.191406 L 61.390625 -1.695312 L 63.503906 -2.371094 L 64.105469 -0.480469 L 62.332031 -1.367188 L 63.292969 -3.289062 L 65.066406 -2.402344 L 63.082031 -2.414062 L 63.277344 -37.492188 L 65.257812 -37.484375 L 63.304688 -37.136719 L 62.988281 -38.941406 L 62.988281 -48.753906 L 63.292969 -51.183594 L 65.257812 -50.9375 L 63.277344 -50.894531 L 62.988281 -64.253906 L 64.96875 -64.296875 L 63.195312 -63.410156 L 62.234375 -65.332031 L 64.007812 -66.21875 L 63.054688 -64.480469 L 61.132812 -65.539062 L 62.085938 -67.277344 L 62.101562 -65.292969 L 50.183594 -65.199219 L 50.167969 -67.179688 L 51.164062 -65.464844 L 49.335938 -64.40625 L 48.34375 -66.125 L 50.097656 -65.203125 L 49.042969 -63.183594 L 47.285156 -64.105469 L 49.265625 -64.011719 L 49.171875 -61.992188 L 47.191406 -62.085938 L 49.136719 -62.453125 L 49.472656 -60.664062 L 49.167969 -56.371094 L 47.191406 -56.511719 L 49.164062 -56.691406 L 49.367188 -54.476562 L 49.167969 -36.84375 L 47.753906 -32.839844 L 44.015625 -34.585938 L 36.945312 -41.65625 L 38.347656 -43.058594 L 37.121094 -41.5 L 34.335938 -43.6875 L 15.3125 -62.902344 L 16.722656 -64.296875 L 15.484375 -62.75 L 14.042969 -63.902344 L 15.28125 -65.449219 L 14.363281 -63.691406 L 12.152344 -64.847656 L 13.070312 -66.605469 L 12.621094 -64.671875 L 9.738281 -65.347656 L 10.1875 -67.277344 L 10.976562 -65.457031 L 8.769531 -64.496094 L 7.976562 -66.316406 L 9.769531 -65.46875 L 8.902344 -63.640625 L 7.113281 -64.488281 L 9.09375 -64.488281 L 9.09375 -35.308594 L 8.996094 -33.617188 L 7.015625 -33.734375 L 8.996094 -33.832031 L 9.199219 -29.667969 L 8.871094 -27.816406 L 6.917969 -28.160156 L 8.902344 -28.183594 L 9.097656 -12.304688 L 8.890625 -10.363281 L 6.917969 -10.570312 L 8.902344 -10.621094 L 9.09375 -2.546875 L 7.113281 -2.5 L 8.902344 -3.347656 L 9.769531 -1.523438 L 7.976562 -0.671875 L 8.605469 -2.554688 L 10.621094 -1.882812 L 9.996094 0 L 10.09375 -1.980469 L 14.03125 -1.789062 L 13.9375 0.191406 L 13.757812 -1.78125 L 16.035156 -1.988281 L 19.949219 -1.6875 L 19.796875 0.289062 L 19.703125 -1.691406 L 21.722656 -1.789062 L 21.816406 0.191406 L 20.929688 -1.582031 L 22.851562 -2.542969 L 23.738281 -0.769531 L 21.851562 -1.378906 L 22.8125 -4.355469 L 24.699219 -3.75 L 22.71875 -3.757812 L 22.8125 -28.167969 L 23.042969 -30.472656 L 24.566406 -34.164062 L 28.144531 -32.789062 L 29.734375 -30.710938 L 28.160156 -29.503906 L 29.53125 -30.9375 L 36.421875 -24.339844 L 37.730469 -22.828125 L 36.234375 -21.527344 L 37.308594 -23.191406 L 39.117188 -22.023438 L 54.203125 -7.035156 L 56.738281 -4.207031 L 55.261719 -2.882812 L 56.5625 -4.382812 Z M 58.003906 -3.132812 "/></g></g></g><g fill="#00ffff" fill-opacity="1"><g transform="translate(0.569893, 90.292524)"><g><path d="M 56.703125 -1.640625 L 55.265625 -2.890625 L 52.765625 -5.671875 L 37.859375 -20.46875 L 36.234375 -21.53125 L 34.984375 -22.96875 L 28.15625 -29.5 L 26.90625 -31.140625 L 25.65625 -31.625 L 24.984375 -29.984375 L 24.796875 -28.0625 L 24.703125 -3.75 L 23.734375 -0.765625 L 21.8125 0.1875 L 19.796875 0.28125 L 16.046875 0 L 13.9375 0.1875 L 10 0 L 7.984375 -0.671875 L 7.109375 -2.5 L 6.921875 -10.578125 L 7.109375 -12.390625 L 6.921875 -28.15625 L 7.203125 -29.796875 L 7.015625 -33.734375 L 7.109375 -35.375 L 7.109375 -64.484375 L 7.984375 -66.3125 L 10.1875 -67.28125 L 13.078125 -66.609375 L 15.28125 -65.453125 L 16.71875 -64.296875 L 35.65625 -45.171875 L 38.34375 -43.0625 L 45.171875 -36.234375 L 46.609375 -35.5625 L 47.1875 -37.1875 L 47.375 -54.390625 L 47.1875 -56.515625 L 47.484375 -60.546875 L 47.1875 -62.09375 L 47.28125 -64.109375 L 48.34375 -66.125 L 50.171875 -67.1875 L 62.09375 -67.28125 L 64.015625 -66.21875 L 64.96875 -64.296875 L 65.265625 -50.9375 L 64.96875 -48.625 L 64.96875 -39.109375 L 65.265625 -37.484375 L 65.0625 -2.40625 L 64.109375 -0.484375 L 61.984375 0.1875 L 59.296875 -0.09375 Z M 56.703125 -1.640625 "/></g></g></g></g></g><g clip-path="url(#c5bafa1772)"><g clip-path="url(#cad1f5755b)"><g transform="matrix(1, 0, 0, 1, 42, 64)"><g clip-path="url(#27c5216bbd)"><g clip-path="url(#e3e9bf2888)"><g clip-path="url(#eaf1f30639)"><rect x="-68.4" width="172.8" fill="#8aceff" height="172.799998" y="-90.4" fill-opacity="1"/></g></g></g></g></g></g></svg>