<svg xmlns="http://www.w3.org/2000/svg" xmlns:xlink="http://www.w3.org/1999/xlink" width="160" zoomAndPan="magnify" viewBox="0 0 120 119.999999" height="160" preserveAspectRatio="xMidYMid meet" version="1.0"><defs><g/></defs><g fill="#ff0000" fill-opacity="1"><g transform="translate(5.401759, 105.938257)"><g><path d="M 84.234375 -2.421875 L 82.09375 -4.28125 L 78.390625 -8.421875 L 56.25 -30.40625 L 53.828125 -31.984375 L 51.96875 -34.125 L 41.828125 -43.828125 L 39.984375 -46.265625 L 38.125 -46.96875 L 37.125 -44.546875 L 36.84375 -41.6875 L 36.6875 -5.5625 L 35.265625 -1.140625 L 32.40625 0.28125 L 29.40625 0.421875 L 23.84375 0 L 20.703125 0.28125 L 14.84375 0 L 11.84375 -1 L 10.5625 -3.71875 L 10.28125 -15.703125 L 10.5625 -18.421875 L 10.28125 -41.828125 L 10.703125 -44.265625 L 10.421875 -50.109375 L 10.5625 -52.546875 L 10.5625 -95.8125 L 11.84375 -98.515625 L 15.140625 -99.953125 L 19.421875 -98.953125 L 22.703125 -97.234375 L 24.84375 -95.515625 L 52.96875 -67.109375 L 56.96875 -63.96875 L 67.109375 -53.828125 L 69.25 -52.828125 L 70.109375 -55.25 L 70.390625 -80.8125 L 70.109375 -83.953125 L 70.53125 -89.953125 L 70.109375 -92.234375 L 70.25 -95.234375 L 71.8125 -98.234375 L 74.53125 -99.796875 L 92.234375 -99.953125 L 95.09375 -98.375 L 96.515625 -95.515625 L 96.953125 -75.671875 L 96.515625 -72.25 L 96.515625 -58.109375 L 96.953125 -55.6875 L 96.65625 -3.5625 L 95.234375 -0.71875 L 92.09375 0.28125 L 88.09375 -0.140625 Z M 84.234375 -2.421875 "/></g></g></g><g fill="#00ffff" fill-opacity="1"><g transform="translate(0.0460275, 105.938257)"><g><path d="M 84.234375 -2.421875 L 82.09375 -4.28125 L 78.390625 -8.421875 L 56.25 -30.40625 L 53.828125 -31.984375 L 51.96875 -34.125 L 41.828125 -43.828125 L 39.984375 -46.265625 L 38.125 -46.96875 L 37.125 -44.546875 L 36.84375 -41.6875 L 36.6875 -5.5625 L 35.265625 -1.140625 L 32.40625 0.28125 L 29.40625 0.421875 L 23.84375 0 L 20.703125 0.28125 L 14.84375 0 L 11.84375 -1 L 10.5625 -3.71875 L 10.28125 -15.703125 L 10.5625 -18.421875 L 10.28125 -41.828125 L 10.703125 -44.265625 L 10.421875 -50.109375 L 10.5625 -52.546875 L 10.5625 -95.8125 L 11.84375 -98.515625 L 15.140625 -99.953125 L 19.421875 -98.953125 L 22.703125 -97.234375 L 24.84375 -95.515625 L 52.96875 -67.109375 L 56.96875 -63.96875 L 67.109375 -53.828125 L 69.25 -52.828125 L 70.109375 -55.25 L 70.390625 -80.8125 L 70.109375 -83.953125 L 70.53125 -89.953125 L 70.109375 -92.234375 L 70.25 -95.234375 L 71.8125 -98.234375 L 74.53125 -99.796875 L 92.234375 -99.953125 L 95.09375 -98.375 L 96.515625 -95.515625 L 96.953125 -75.671875 L 96.515625 -72.25 L 96.515625 -58.109375 L 96.953125 -55.6875 L 96.65625 -3.5625 L 95.234375 -0.71875 L 92.09375 0.28125 L 88.09375 -0.140625 Z M 84.234375 -2.421875 "/></g></g></g><g fill="#000000" fill-opacity="1"><g transform="translate(2.723893, 105.938257)"><g><path d="M 84.234375 -2.421875 L 82.09375 -4.28125 L 78.390625 -8.421875 L 56.25 -30.40625 L 53.828125 -31.984375 L 51.96875 -34.125 L 41.828125 -43.828125 L 39.984375 -46.265625 L 38.125 -46.96875 L 37.125 -44.546875 L 36.84375 -41.6875 L 36.6875 -5.5625 L 35.265625 -1.140625 L 32.40625 0.28125 L 29.40625 0.421875 L 23.84375 0 L 20.703125 0.28125 L 14.84375 0 L 11.84375 -1 L 10.5625 -3.71875 L 10.28125 -15.703125 L 10.5625 -18.421875 L 10.28125 -41.828125 L 10.703125 -44.265625 L 10.421875 -50.109375 L 10.5625 -52.546875 L 10.5625 -95.8125 L 11.84375 -98.515625 L 15.140625 -99.953125 L 19.421875 -98.953125 L 22.703125 -97.234375 L 24.84375 -95.515625 L 52.96875 -67.109375 L 56.96875 -63.96875 L 67.109375 -53.828125 L 69.25 -52.828125 L 70.109375 -55.25 L 70.390625 -80.8125 L 70.109375 -83.953125 L 70.53125 -89.953125 L 70.109375 -92.234375 L 70.25 -95.234375 L 71.8125 -98.234375 L 74.53125 -99.796875 L 92.234375 -99.953125 L 95.09375 -98.375 L 96.515625 -95.515625 L 96.953125 -75.671875 L 96.515625 -72.25 L 96.515625 -58.109375 L 96.953125 -55.6875 L 96.65625 -3.5625 L 95.234375 -0.71875 L 92.09375 0.28125 L 88.09375 -0.140625 Z M 84.234375 -2.421875 "/></g></g></g></svg>